#!OML:ASF E:\emotionWalksFemale\Project 1\Capture day 1\Session 1\Female1.ASF
:FULLY-SPECIFIED
:DEGREES
2113
root 9.93248 15.3589 40.5571 543.449 14.2033 -540.487
lowerback 7.70081 -1.67322 1.50996
upperback -4.04909 -1.90074 1.31157
thorax -8.6155 -0.940573 0.82184
lowerneck -6.29911 4.8514 6.16623
upperneck 7.23318 6.212 -3.14827
head 3.83509 3.13366 -1.80458
rclavicle 2.42269e-014 1.27222e-014
rhumerus -46.2772 -3.07395 -73.906
rradius 34.7183
rwrist 13.9072
rhand 0.0580454 -57.5694
rfingers 7.12502
rthumb 25.646 -805.862
lclavicle 2.42269e-014 1.27222e-014
lhumerus -40.012 -23.4404 96.1735
lradius 62.6023
lwrist -2.72477
lhand -2.66271 -27.9165
lfingers 7.12502
lthumb 23.0376 0.72653
rfemur -10.1016 23.2417 22.7832
rtibia 24.665
rfoot -19.1007 -20.473
rtoes 2.50989
lfemur -6.1252 -19.309 -16.4878
ltibia 24.5855
lfoot -26.9687 24.1422
ltoes -20.028
2114
root 9.9162 15.3558 40.5569 543.395 14.231 -540.47
lowerback 7.69792 -1.65963 1.42826
upperback -4.0751 -1.89254 1.29575
thorax -8.63957 -0.932321 0.850199
lowerneck -6.34309 4.79693 6.2845
upperneck 7.21827 6.14382 -3.37874
head 3.85116 3.0933 -1.90781
rclavicle 3.72721e-015 1.59028e-015
rhumerus -46.4659 -3.22915 -74.2465
rradius 34.3843
rwrist 14.5875
rhand -0.324923 -57.2416
rfingers 7.12502
rthumb 25.2791 -805.587
lclavicle 3.72721e-015 1.59028e-015
lhumerus -40.5287 -22.5445 96.3523
lradius 61.5057
lwrist -3.20382
lhand -1.83749 -28.2395
lfingers 7.12502
lthumb 23.8293 0.302568
rfemur -10.0378 23.3644 22.7524
rtibia 24.6838
rfoot -19.1721 -20.5938
rtoes 2.75133
lfemur -5.89405 -19.716 -16.6919
ltibia 24.47
lfoot -27.8317 24.6417
ltoes -18.7037
2115
root 9.89888 15.3543 40.5561 543.495 14.2453 -540.372
lowerback 7.63238 -1.62461 1.37607
upperback -4.16325 -1.84503 1.32134
thorax -8.69423 -0.903501 0.89919
lowerneck -6.94159 4.79005 5.73185
upperneck 7.8064 6.10954 -2.70774
head 4.12022 3.08948 -1.56772
rclavicle 4.04278e-014 -1.39149e-014
rhumerus -46.5838 -3.37169 -74.5455
rradius 33.9538
rwrist 15.3723
rhand -0.797398 -56.2962
rfingers 7.12502
rthumb 24.8264 -804.705
lclavicle 4.04278e-014 -1.39149e-014
lhumerus -40.9557 -21.805 96.5814
lradius 60.2706
lwrist -3.59279
lhand -1.44857 -28.1714
lfingers 7.12502
lthumb 24.2022 0.32148
rfemur -10.1551 23.4672 22.749
rtibia 24.7251
rfoot -19.2113 -20.9331
rtoes 1.2696
lfemur -5.86042 -19.9853 -16.7404
ltibia 24.3668
lfoot -28.7736 25.0246
ltoes -17.4294
2116
root 9.87561 15.3528 40.5561 543.788 14.191 -540.215
lowerback 7.42253 -1.61667 1.4826
upperback -4.31684 -1.81195 1.35713
thorax -8.74072 -0.888607 0.868929
lowerneck -6.9588 4.66888 5.62999
upperneck 7.8156 5.96255 -2.76784
head 4.11774 3.01127 -1.57914
rclavicle -1.42255e-014 7.55382e-015
rhumerus -46.8475 -3.61611 -74.752
rradius 33.6325
rwrist 16.2496
rhand -1.04215 -55.2163
rfingers 7.12502
rthumb 24.5918 -803.657
lclavicle -1.42255e-014 7.55382e-015
lhumerus -41.3019 -21.0035 96.803
lradius 58.7038
lwrist -4.15253
lhand -1.67014 -28.1707
lfingers 7.12502
lthumb 23.9897 0.350322
rfemur -10.5374 23.3769 22.6916
rtibia 24.8122
rfoot -19.2637 -21.052
rtoes 0.515013
lfemur -6.09042 -20.4089 -16.6572
ltibia 24.2476
lfoot -29.5815 25.3743
ltoes -15.5844
2117
root 9.85146 15.3454 40.5573 543.993 14.1266 -540.099
lowerback 7.18788 -1.66632 1.54465
upperback -4.36773 -1.86701 1.40486
thorax -8.65889 -0.915459 0.885968
lowerneck -7.5809 4.694 5.29262
upperneck 8.71603 6.00112 -2.58384
head 4.08122 3.01889 -1.28935
rclavicle 5.60697e-014 5.56597e-015
rhumerus -47.0815 -3.54338 -75.1545
rradius 33.565
rwrist 16.8138
rhand -0.987339 -55.3898
rfingers 7.12502
rthumb 24.6443 -803.823
lclavicle 5.60697e-014 5.56597e-015
lhumerus -41.4927 -19.981 96.8163
lradius 57.0467
lwrist -4.71205
lhand -1.95386 -28.4806
lfingers 7.12502
lthumb 23.7176 0.0759717
rfemur -10.8259 23.2228 22.6148
rtibia 24.8881
rfoot -19.2764 -20.8206
rtoes 1.42896
lfemur -6.23301 -21.259 -16.6822
ltibia 24.1557
lfoot -30.4156 25.8132
ltoes -13.0719
2118
root 9.83149 15.3373 40.5584 544.077 14.0794 -540.041
lowerback 7.03154 -1.70709 1.45788
upperback -4.33367 -1.93326 1.43585
thorax -8.52576 -0.942034 0.97056
lowerneck -7.90516 4.67832 5.45389
upperneck 8.79438 5.9678 -2.84092
head 4.17011 2.99047 -1.38701
rclavicle 2.21769e-014 -5.56597e-015
rhumerus -47.2414 -3.46644 -75.6542
rradius 33.5635
rwrist 17.3544
rhand -1.28804 -55.872
rfingers 7.12502
rthumb 24.3561 -804.344
lclavicle 2.21769e-014 -5.56597e-015
lhumerus -41.5867 -18.9429 96.7038
lradius 55.5032
lwrist -5.16063
lhand -1.73819 -28.3125
lfingers 7.12502
lthumb 23.9245 0.217036
rfemur -10.9733 23.1489 22.5437
rtibia 24.9655
rfoot -19.3064 -20.5573
rtoes 1.9219
lfemur -6.22863 -22.0103 -16.7832
ltibia 24.0878
lfoot -31.3108 26.1306
ltoes -10.6217
2119
root 9.8113 15.3343 40.5592 544.195 13.9937 -539.903
lowerback 6.88395 -1.60777 1.5559
upperback -4.38106 -1.78531 1.45682
thorax -8.49373 -0.87288 0.912678
lowerneck -8.30699 4.48546 5.08076
upperneck 9.13861 5.70996 -2.54647
head 4.31168 2.86569 -1.24233
rclavicle 3.75703e-014 1.15295e-014
rhumerus -47.7131 -3.90525 -75.7816
rradius 33.6012
rwrist 18.0612
rhand -2.14608 -56.0379
rfingers 7.12502
rthumb 23.5333 -804.618
lclavicle 3.75703e-014 1.15295e-014
lhumerus -41.8892 -18.1891 96.8985
lradius 54.0343
lwrist -5.62753
lhand -1.05657 -27.7873
lfingers 7.12502
lthumb 24.578 0.654996
rfemur -11.1445 22.9816 22.5483
rtibia 25.0753
rfoot -19.4231 -20.337
rtoes 2.1885
lfemur -6.27371 -22.2427 -16.7207
ltibia 24.0176
lfoot -31.6757 26.419
ltoes -9.76935
2120
root 9.78803 15.3296 40.5603 544.336 13.8559 -539.664
lowerback 6.79068 -1.56637 1.67521
upperback -4.4479 -1.70393 1.54127
thorax -8.51323 -0.834187 0.921887
lowerneck -9.00519 4.36444 4.82257
upperneck 9.91935 5.5485 -2.37445
head 4.64895 2.78733 -1.13617
rclavicle 2.6165e-014 -5.1684e-015
rhumerus -48.1655 -4.28959 -75.9046
rradius 33.6624
rwrist 18.8517
rhand -2.95573 -56.0344
rfingers 7.12502
rthumb 22.7565 -804.712
lclavicle 2.6165e-014 -5.1684e-015
lhumerus -42.1252 -17.0374 96.877
lradius 52.4782
lwrist -6.33781
lhand 0.112824 -27.4207
lfingers 7.12502
lthumb 25.6984 0.864498
rfemur -11.3103 22.9009 22.6565
rtibia 25.1794
rfoot -19.5909 -20.4116
rtoes 2.41528
lfemur -6.3788 -22.526 -16.5608
ltibia 23.9729
lfoot -31.8393 26.8981
ltoes -9.94526
2121
root 9.76362 15.3182 40.5622 544.396 13.6882 -539.508
lowerback 6.81959 -1.607 1.69653
upperback -4.49061 -1.74743 1.58798
thorax -8.57595 -0.853607 0.967365
lowerneck -9.81091 4.34795 4.76668
upperneck 10.8041 5.52432 -2.40036
head 5.05508 2.77164 -1.11055
rclavicle -2.28602e-014 9.93923e-015
rhumerus -48.5669 -4.53864 -76.1753
rradius 33.8234
rwrist 19.5722
rhand -3.54345 -55.9168
rfingers 7.12502
rthumb 22.1923 -804.663
lclavicle -2.28602e-014 9.93923e-015
lhumerus -42.1337 -15.5142 96.4362
lradius 50.7077
lwrist -7.54654
lhand 1.64843 -27.6884
lfingers 7.12502
lthumb 27.1683 0.3758
rfemur -11.4094 23.0316 22.7063
rtibia 25.2669
rfoot -19.5986 -20.6552
rtoes 2.23156
lfemur -6.45824 -23.139 -16.5186
ltibia 23.9448
lfoot -32.4949 27.2565
ltoes -9.53326
2122
root 9.74125 15.304 40.5658 544.395 13.5509 -539.314
lowerback 6.91562 -1.68645 1.72083
upperback -4.51838 -1.84397 1.62201
thorax -8.66233 -0.900128 1.00749
lowerneck -10.4149 4.35708 4.79787
upperneck 11.4496 5.52644 -2.42962
head 5.359 2.77145 -1.10504
rclavicle -4.78823e-014 6.36111e-015
rhumerus -48.9936 -4.61089 -76.5963
rradius 34.0712
rwrist 20.0488
rhand -4.05563 -56.1206
rfingers 7.12502
rthumb 21.7005 -804.924
lclavicle -4.78823e-014 6.36111e-015
lhumerus -42.2223 -14.318 96.1164
lradius 48.8517
lwrist -7.99245
lhand 1.24431 -27.0238
lfingers 7.12502
lthumb 26.7817 1.10021
rfemur -11.4557 22.996 22.8336
rtibia 25.3898
rfoot -19.451 -20.6269
rtoes 2.07773
lfemur -6.35496 -24.1019 -16.4761
ltibia 23.8479
lfoot -33.6502 27.5538
ltoes -7.83543
2123
root 9.71739 15.295 40.5657 544.356 13.2916 -539.129
lowerback 6.89896 -1.74861 1.82041
upperback -4.47625 -1.9179 1.63357
thorax -8.61007 -0.941949 0.972875
lowerneck -11.026 4.28143 4.66967
upperneck 12.0014 5.41423 -2.30741
head 5.62338 2.71764 -1.03761
rclavicle -3.72473e-014 3.33958e-014
rhumerus -49.3118 -4.87684 -76.9134
rradius 34.2324
rwrist 20.3806
rhand -4.52137 -56.4384
rfingers 7.12502
rthumb 21.2532 -805.293
lclavicle -3.72473e-014 3.33958e-014
lhumerus -42.1695 -13.1063 95.6571
lradius 46.9064
lwrist -8.94357
lhand 0.924502 -26.9381
lfingers 7.12502
lthumb 26.4756 1.23237
rfemur -11.369 22.7214 22.9709
rtibia 25.4471
rfoot -19.451 -20.4923
rtoes 2.04033
lfemur -6.16162 -25.2529 -16.4905
ltibia 23.7868
lfoot -34.7131 27.798
ltoes -5.3091
2124
root 9.68986 15.2922 40.5524 544.182 12.9079 -539.216
lowerback 6.55885 -1.79349 1.77572
upperback -4.27432 -2.01477 1.52951
thorax -8.1936 -0.994576 0.884018
lowerneck -11.4089 4.08304 4.83458
upperneck 11.9395 5.11397 -2.4933
head 5.66719 2.55824 -1.14153
rclavicle -9.65348e-015 1.23246e-014
rhumerus -49.4205 -5.40215 -77.1582
rradius 34.2807
rwrist 20.4833
rhand -5.04193 -56.733
rfingers 7.12502
rthumb 20.7531 -805.643
lclavicle -9.65348e-015 1.23246e-014
lhumerus -41.9413 -11.9513 95.0548
lradius 45.0145
lwrist -9.88246
lhand 1.55552 -26.8841
lfingers 7.12502
lthumb 27.0794 1.19392
rfemur -11.0457 22.4712 22.8495
rtibia 25.4123
rfoot -19.5226 -20.5362
rtoes 1.66384
lfemur -5.93486 -25.995 -16.8413
ltibia 23.8124
lfoot -34.829 28.0723
ltoes -5.65782
2125
root 9.66411 15.2939 40.5553 544.296 12.6458 -538.925
lowerback 6.51292 -1.84468 1.88759
upperback -4.3087 -2.05968 1.62385
thorax -8.20518 -1.01737 0.926035
lowerneck -11.6594 3.94535 4.85509
upperneck 12.0456 4.9226 -2.56818
head 5.73806 2.45814 -1.17972
rclavicle 1.41013e-014 1.59028e-014
rhumerus -49.6432 -5.58483 -77.4475
rradius 34.2812
rwrist 20.2817
rhand -5.7399 -57.1563
rfingers 7.12502
rthumb 20.0824 -806.138
lclavicle 1.41013e-014 1.59028e-014
lhumerus -41.8569 -10.5356 94.5093
lradius 43.0413
lwrist -10.9671
lhand 2.06457 -26.3359
lfingers 7.12502
lthumb 27.5663 1.66543
rfemur -11.0444 22.6653 23.0464
rtibia 25.2928
rfoot -19.3044 -21.0255
rtoes 1.88991
lfemur -6.14752 -26.0689 -16.5276
ltibia 23.9228
lfoot -34.4604 28.6904
ltoes -9.5565
2126
root 9.64887 15.2898 40.5616 544.209 12.4309 -538.641
lowerback 6.78067 -1.81567 1.84273
upperback -4.31613 -1.99985 1.79783
thorax -8.36221 -0.97783 1.13643
lowerneck -12.1058 3.77786 4.40366
upperneck 12.3378 4.74708 -2.46824
head 5.88502 2.35674 -1.0813
rclavicle 4.56335e-014 -1.86858e-014
rhumerus -49.8689 -5.56196 -77.6041
rradius 34.3026
rwrist 19.64
rhand -6.15532 -57.2716
rfingers 7.12502
rthumb 19.683 -806.295
lclavicle 4.56335e-014 -1.86858e-014
lhumerus -41.8034 -8.98578 94.0724
lradius 41.0802
lwrist -12.3509
lhand 2.37711 -25.9222
lfingers 7.12502
lthumb 27.8652 2.03107
rfemur -10.8045 22.9203 23.3839
rtibia 25.1736
rfoot -19.1127 -21.5004
rtoes 2.30255
lfemur -6.09509 -26.1082 -16.2816
ltibia 24.0327
lfoot -34.3078 28.8166
ltoes -11.0669
